<mxfile host="app.diagrams.net" modified="2023-12-08T10:18:14.261Z" agent="Mozilla/5.0 (Macintosh; Intel Mac OS X 10.15; rv:120.0) Gecko/20100101 Firefox/120.0" version="22.1.7" etag="OhEsZ5rqXTmwF6ZLRQV3" type="github">
  <diagram name="Page-1" id="Tby705Z0z7yqU1RdiAKT">
    <mxGraphModel>
      <root>
        <mxCell id="0" />
        <mxCell id="1" parent="0" />
      </root>
    </mxGraphModel>
  </diagram>
</mxfile>
